<svg version="1.1" id="Layer_1" xmlns="http://www.w3.org/2000/svg" xmlns:xlink="http://www.w3.org/1999/xlink" x="0px" y="0px" width="100%" viewBox="0 0 250 250" enable-background="new 0 0 250 250" xml:space="preserve">

<path fill="#FB7038" opacity="1.000000" stroke="none" d="
M65.911301,244.813904 
	C57.642712,243.792908 51.166779,240.211868 48.065186,232.037277 
	C47.452953,230.423676 47.351959,228.616074 47.040993,226.018036 
	C47.054333,205.736328 47.064266,186.334457 46.979973,166.932983 
	C46.974239,165.613113 46.260765,164.296341 45.876442,162.978119 
	C39.093475,160.391968 32.337143,157.732422 25.514187,155.256470 
	C22.851610,154.290268 21.721733,152.847748 21.925600,149.879456 
	C22.240074,145.300720 22.085636,140.689774 22.134510,135.636246 
	C30.753830,138.778137 37.913425,141.387955 45.850800,143.892242 
	C47.389980,135.157089 53.871227,137.038483 59.204475,137.035263 
	C111.517479,137.003723 163.830521,137.013535 216.143539,137.011627 
	C217.034286,139.135681 217.925049,141.259735 218.863510,143.497589 
	C225.642883,141.199112 232.965057,138.716614 240.271210,136.239532 
	C240.271210,142.233612 240.384903,146.927475 240.189728,151.608459 
	C240.142059,152.751770 239.351990,154.483200 238.443878,154.872375 
	C231.931046,157.663513 225.299561,160.177856 217.966614,163.101318 
	C217.160522,184.297211 217.093582,205.171875 217.026642,226.046555 
	C216.772018,234.136292 210.672668,244.170654 197.952423,244.005997 
	C185.739655,244.033478 174.408691,244.068008 162.606506,244.052017 
	C131.478699,243.985229 100.822052,243.957428 70.165482,243.989334 
	C68.747139,243.990799 67.329353,244.526840 65.911301,244.813904 
M104.261528,153.374313 
	C90.460815,153.236954 76.660149,153.092316 62.859100,153.012543 
	C62.573250,153.010895 62.283058,153.760849 61.764442,154.738556 
	C61.533844,155.482880 61.303242,156.227219 60.991608,157.908279 
	C61.019398,174.610458 61.047184,191.312637 61.251980,208.744125 
	C61.485718,211.305786 61.238895,214.031784 62.047569,216.396851 
	C64.086937,222.361267 68.736839,225.000061 75.594147,225.666245 
	C84.808533,225.492874 94.022911,225.319489 103.522194,225.014618 
	C103.522194,225.014618 103.834183,225.048157 104.570206,224.573441 
	C104.636826,201.050644 104.703453,177.527863 104.261528,153.374313 
z" data-index="1" style="opacity: 1; visibility: visible;"></path>
<path fill="#F9713B" opacity="1.000000" stroke="none" d="
M134.102753,88.950439 
	C146.829147,90.634262 159.774719,91.370773 172.224335,94.250977 
	C186.540894,97.563095 200.240799,103.187256 210.702209,114.298637 
	C213.662079,117.442413 215.999374,121.172356 219.430115,125.699600 
	C213.195999,125.377319 208.529510,125.406883 203.935104,124.846069 
	C191.790283,123.363586 179.680344,121.597542 167.549698,119.995911 
	C152.335144,117.987106 137.124619,115.940895 121.891464,114.082039 
	C112.136368,112.891640 102.341118,112.032669 92.569672,110.971718 
	C90.642593,110.762482 88.742027,110.309158 86.291809,109.544067 
	C80.169937,108.078682 74.585487,107.037621 69.000732,105.664017 
	C69.000488,104.888054 69.000549,104.444641 69.388687,103.998322 
	C70.552826,103.985764 71.328903,103.976105 72.340515,103.997299 
	C72.576050,104.028145 73.027512,104.176178 73.277573,104.383003 
	C74.679230,104.358269 75.830826,104.126701 76.986862,103.930695 
	C76.991310,103.966248 76.921295,103.950935 77.214180,103.965263 
	C77.702499,103.975243 77.897934,103.970894 78.325790,104.000565 
	C78.558212,104.034576 79.002983,104.185837 79.301125,104.404930 
	C84.853905,105.197853 86.876984,103.570374 87.948410,97.926041 
	C87.959190,97.935898 87.930313,97.903938 88.318939,97.933365 
	C91.389427,96.513000 94.071274,95.063217 96.753120,93.613434 
	C96.572273,93.089439 96.391434,92.565445 96.210587,92.041458 
	C90.269958,92.546547 84.329338,93.051636 78.388710,93.556725 
	C78.339767,93.004776 78.290833,92.452835 78.241898,91.900894 
	C79.094040,91.595367 79.927238,91.100662 80.801208,91.013168 
	C91.135254,89.978607 101.457741,88.626755 111.819901,88.142868 
	C119.218811,87.797348 126.673149,88.638702 134.102753,88.950439 
z" data-index="2" style="opacity: 1; visibility: visible;"></path>
<path fill="#F57642" opacity="1.000000" stroke="none" d="
M9.900822,104.843857 
	C5.675133,94.905815 8.988901,86.762794 15.104004,79.561836 
	C21.611174,71.899185 30.722601,68.491837 40.151161,66.013336 
	C43.108162,65.236023 46.216072,65.032799 49.803864,65.653450 
	C48.941246,66.564011 48.100872,67.496902 47.212326,68.381424 
	C42.223801,73.347313 36.491405,77.764046 32.376854,83.369400 
	C23.243195,95.812439 27.261547,106.579071 39.024513,116.494560 
	C40.971718,118.135933 42.989319,119.693787 45.103947,121.394432 
	C35.740631,127.782722 17.638586,119.174416 9.900822,104.843857 
z" data-index="3" style="visibility: visible; opacity: 1;"></path>
<path fill="#F5733E" opacity="1.000000" stroke="none" d="
M133.618057,63.774822 
	C139.855835,64.653084 145.756363,65.756348 151.680298,66.715034 
	C155.712234,67.367546 159.776917,67.817635 164.002045,68.381607 
	C163.627380,73.030151 163.633560,77.518463 162.703262,81.803459 
	C162.411972,83.145111 159.442566,85.023903 157.962448,84.812515 
	C145.732269,83.065849 133.564026,80.885544 120.737297,78.728981 
	C121.183083,73.796898 121.455269,69.063072 122.166176,64.396065 
	C122.305794,63.479488 124.202927,62.097992 125.182304,62.181908 
	C127.915230,62.416088 130.591904,63.306744 133.618057,63.774822 
z" data-index="4" style="opacity: 1; visibility: visible;"></path>
<path fill="#F7733E" opacity="1.000000" stroke="none" d="
M77.880463,31.008194 
	C77.317299,30.560682 76.754143,30.113171 76.039520,29.038200 
	C73.895164,27.630711 71.902260,26.850681 69.909355,26.070652 
	C69.909355,26.070652 69.996620,26.053993 69.963989,25.788605 
	C69.259560,25.375351 68.587776,25.227486 67.915985,25.079622 
	C67.352257,24.940855 66.788521,24.802088 66.200165,24.019360 
	C68.159676,22.915270 70.143806,22.455141 72.127945,21.995014 
	C72.127945,21.995016 72.584686,22.037464 73.063812,22.312714 
	C75.000053,22.460445 76.457184,22.332928 77.914307,22.205408 
	C84.227905,22.740526 90.356461,24.513248 94.854118,28.854654 
	C100.958046,34.746540 100.450310,41.983654 95.088638,49.880417 
	C93.968201,51.112026 93.518661,52.112900 93.069115,53.113777 
	C93.069115,53.113777 93.052124,53.034725 92.736389,53.056992 
	C90.297981,55.418842 88.175301,57.758430 86.052620,60.098019 
	C86.052620,60.098019 86.001526,60.034264 85.682968,60.029350 
	C84.588417,60.710537 83.812424,61.396629 83.036430,62.082726 
	C83.036430,62.082722 83.015152,62.014309 82.672073,62.051163 
	C81.156288,63.223389 79.983589,64.358765 78.810898,65.494141 
	C78.810898,65.494141 78.716217,65.747124 78.269058,65.593910 
	C76.557549,66.320229 75.293198,67.199760 74.028854,68.079300 
	C74.028854,68.079300 74.022598,68.003998 73.682236,68.001068 
	C72.561035,68.720970 71.780182,69.443794 70.999329,70.166611 
	C70.556732,70.440018 70.114136,70.713425 69.112312,70.993378 
	C68.371132,70.993195 68.189186,70.986473 67.906937,70.848236 
	C67.473328,70.531326 67.215271,70.620926 67.016197,70.991653 
	C66.999924,70.997787 66.972649,71.020897 66.750259,70.831429 
	C66.361763,70.094452 66.195648,69.546944 66.160233,68.743240 
	C66.521294,67.963638 66.751656,67.440239 66.982018,66.916840 
	C66.982018,66.916840 66.992516,66.984077 67.301910,66.959076 
	C68.732208,65.916824 69.853111,64.899567 70.974014,63.882309 
	C70.974014,63.882309 70.989342,63.953991 71.337982,63.964565 
	C72.791809,62.585266 73.897003,61.195393 75.002197,59.805519 
	C75.001221,59.495613 75.132935,59.259830 75.858383,58.938957 
	C76.541794,58.491066 76.764153,58.202389 76.986511,57.913712 
	C76.986504,57.913708 76.987038,57.987198 77.190208,57.870590 
	C77.598648,57.469910 77.803917,57.185837 78.009193,56.901764 
	C78.020393,56.576180 78.162262,56.324142 79.016701,56.043358 
	C84.492867,52.918938 84.638596,47.921082 84.988358,42.612583 
	C83.944817,39.812721 82.893867,37.405304 81.842911,34.997887 
	C81.287277,34.549713 80.731644,34.101532 80.039352,33.058365 
	C79.228615,31.978317 78.554543,31.493256 77.880463,31.008194 
z" data-index="5" style="visibility: visible;"></path>
<path fill="#F7723C" opacity="1.000000" stroke="none" d="
M38.807999,39.001617 
	C38.501167,38.985981 38.267544,38.847153 38.061516,38.008904 
	C37.311829,36.635735 36.607746,35.838795 35.903660,35.041855 
	C35.903660,35.041855 35.970791,35.005650 35.981762,34.607178 
	C35.664337,30.081560 35.335945,25.954412 35.007553,21.827267 
	C35.007553,21.827267 35.044579,21.477217 35.436897,21.190769 
	C36.554390,19.224550 37.279564,17.544775 38.004738,15.865002 
	C38.001961,15.547206 38.133701,15.301546 38.873016,14.971907 
	C39.556377,14.518169 39.766685,14.220551 39.976990,13.922933 
	C39.976990,13.922933 39.987381,13.993214 40.335110,13.991434 
	C42.442181,12.628952 44.201523,11.268249 45.960865,9.907545 
	C45.960865,9.907545 45.986183,9.976188 46.262039,9.949426 
	C47.024555,9.581728 47.511219,9.240791 47.997883,8.899857 
	C47.997883,8.899858 47.990059,8.973472 48.345959,8.987522 
	C50.115490,8.632940 51.529121,8.264308 52.942753,7.895675 
	C52.974018,7.540646 53.141132,7.269271 53.903954,7.290702 
	C54.908016,8.726225 55.452213,9.952595 55.996414,11.178965 
	C55.977917,11.483912 55.839191,11.717443 55.037476,11.966250 
	C54.004417,12.725367 53.514137,13.397794 53.023853,14.070221 
	C47.901218,18.524168 44.057911,24.057711 47.226704,30.687706 
	C49.829235,36.132931 54.459003,40.609241 58.372173,45.754238 
	C52.766296,46.673992 47.344345,45.199142 41.989811,41.185837 
	C41.087490,40.411659 40.505829,40.228745 39.924164,40.045826 
	C39.924164,40.045826 39.987316,40.016319 39.871170,39.793888 
	C39.439350,39.381512 39.123672,39.191563 38.807999,39.001617 
z" data-index="6" style="opacity: 1; visibility: visible;"></path>
<path fill="#ED7B4B" opacity="1.000000" stroke="none" d="
M133.929260,88.636948 
	C126.673149,88.638702 119.218811,87.797348 111.819901,88.142868 
	C101.457741,88.626755 91.135254,89.978607 80.801208,91.013168 
	C79.927238,91.100662 79.094040,91.595367 78.241898,91.900894 
	C78.290833,92.452835 78.339767,93.004776 78.388710,93.556725 
	C84.329338,93.051636 90.269958,92.546547 96.210587,92.041458 
	C96.391434,92.565445 96.572273,93.089439 96.753120,93.613434 
	C94.071274,95.063217 91.389427,96.513000 88.463898,97.623886 
	C89.382690,96.357498 90.545151,95.430016 91.707611,94.502525 
	C91.558815,94.184822 91.410011,93.867119 91.261215,93.549416 
	C83.121666,95.657555 74.982117,97.765694 66.842567,99.873840 
	C66.853790,100.439575 66.865013,101.005310 66.876236,101.571053 
	C68.619148,102.369514 70.362061,103.167976 72.104973,103.966446 
	C71.328903,103.976105 70.552826,103.985764 69.009644,103.993050 
	C66.521103,103.290192 64.799667,102.589706 63.078228,101.889229 
	C63.163425,101.410263 63.248627,100.931305 63.333828,100.452339 
	C67.433495,98.443596 71.533165,96.434853 75.632835,94.426109 
	C75.525185,93.998154 75.417534,93.570198 75.309883,93.142242 
	C73.581749,93.142242 71.853622,93.142242 70.074669,93.086105 
	C70.023849,93.029976 69.921860,92.918030 69.921860,92.918030 
	C90.734985,84.928238 112.184685,85.782494 133.929260,88.636948 
z" data-index="7" style="visibility: visible; opacity: 1;"></path>
<path fill="#E4835A" opacity="1.000000" stroke="none" d="
M215.910919,136.630997 
	C163.830521,137.013535 111.517479,137.003723 59.204475,137.035263 
	C53.871227,137.038483 47.389980,135.157089 46.244995,143.873901 
	C45.861412,141.492401 45.861412,139.023758 45.861412,136.324097 
	C47.386990,136.192566 48.504681,136.012222 49.622421,136.011917 
	C103.986679,135.996994 158.350937,135.996231 212.715195,136.007004 
	C213.702911,136.007202 214.690598,136.165726 215.910919,136.630997 
z" data-index="8" style="visibility: visible; opacity: 1;"></path>
<path fill="#ED7B4B" opacity="1.000000" stroke="none" d="
M69.001038,105.996567 
	C74.585487,107.037621 80.169937,108.078682 85.872055,109.472931 
	C79.387444,109.080719 72.782852,108.355110 66.183739,107.582733 
	C62.001553,107.093239 57.820438,106.582062 53.655449,105.968018 
	C52.761803,105.836273 51.939701,105.219254 50.618256,104.611145 
	C55.182560,97.654160 62.195602,95.375496 69.540031,92.968315 
	C69.921860,92.918030 70.023849,93.029976 69.954620,93.408524 
	C65.324234,97.994804 57.631336,97.824928 54.043900,104.477486 
	C59.572166,105.038948 64.286598,105.517754 69.001038,105.996567 
z" data-index="9" style="opacity: 1; visibility: visible;"></path>

<path fill="#FFFFFF" opacity="1.000000" stroke="none" d="
M217.424469,225.855560 
	C217.093582,205.171875 217.160522,184.297211 217.622742,163.245758 
	C217.952759,183.934174 217.887527,204.799377 217.424469,225.855560 
z" data-index="11" style="visibility: hidden; opacity: 1; stroke-width: 2px; stroke: rgb(13, 153, 255);"></path>

<path fill="#FFFFFF" opacity="1.000000" stroke="none" d="
M163.483948,244.912537 
	C163.021271,244.836761 163.047318,244.469467 163.062515,244.286011 
	C174.408691,244.068008 185.739655,244.033478 197.535828,244.061554 
	C196.673889,244.416107 195.348419,244.952179 194.019394,244.961105 
	C183.995514,245.028473 173.970963,244.992203 163.483948,244.912537 
z" data-index="13" style="visibility: hidden; opacity: 1; stroke-width: 2px; stroke: rgb(13, 153, 255);"></path>
<path fill="#E8835D" opacity="1.000000" stroke="none" d="
M56.360504,11.120840 
	C55.452213,9.952595 54.908016,8.726225 54.141460,7.225099 
	C56.742535,6.108922 59.565964,5.267501 62.389393,4.426080 
	C62.686886,4.993015 62.984379,5.559950 63.281876,6.126884 
	C61.096111,7.772161 58.910351,9.417438 56.360504,11.120840 
M57.512215,7.439316 
	C57.512215,7.439316 57.556450,7.520885 57.512215,7.439316 
z" data-index="14" style="visibility: visible;"></path>
<path fill="#E8855B" opacity="1.000000" stroke="none" d="
M84.980934,43.005032 
	C84.638596,47.921082 84.492867,52.918938 79.230423,55.976021 
	C80.580948,51.929623 82.299644,47.848259 84.301643,43.385082 
	C84.584938,43.003269 84.980934,43.005032 84.980934,43.005032 
z" data-index="15" style="visibility: visible;"></path>
<path fill="#E8855B" opacity="1.000000" stroke="none" d="
M66.029533,68.999435 
	C66.195648,69.546944 66.361763,70.094452 66.527855,71.072182 
	C65.032715,72.371964 63.537605,73.241531 62.042496,74.111099 
	C61.247738,74.734489 60.452976,75.357872 59.331387,75.631149 
	C58.989098,74.490074 58.973640,73.699097 58.958183,72.908119 
	C59.713707,72.269569 60.469227,71.631027 61.776299,70.857841 
	C62.538734,70.447014 62.749615,70.170830 62.960499,69.894646 
	C62.960499,69.894646 62.974659,69.970467 63.268742,69.938301 
	C64.385063,69.603905 65.207298,69.301674 66.029533,68.999435 
z" data-index="16" style="visibility: visible;"></path>
<path fill="#E8835D" opacity="1.000000" stroke="none" d="
M34.653015,22.012415 
	C35.335945,25.954412 35.664337,30.081560 35.970730,34.643684 
	C33.408066,31.039982 32.045334,26.850393 34.653015,22.012415 
z" data-index="17" style="visibility: visible;"></path>
<path fill="#E8855B" opacity="1.000000" stroke="none" d="
M86.407394,60.081673 
	C88.175301,57.758430 90.297981,55.418842 92.774376,53.070827 
	C91.006119,55.396709 88.884148,57.731018 86.407394,60.081673 
z" data-index="18" style="visibility: visible;"></path>
<path fill="#E4815C" opacity="1.000000" stroke="none" d="
M71.893829,21.628311 
	C70.143806,22.455141 68.159676,22.915270 66.075745,23.752274 
	C64.119499,23.449955 62.263054,22.770756 60.406605,22.091558 
	C60.482182,21.814909 60.557758,21.538258 60.633331,21.261608 
	C64.308792,21.261608 67.984261,21.261608 71.893829,21.628311 
z" data-index="19" style="visibility: visible;"></path>
<path fill="#E48761" opacity="1.000000" stroke="none" d="
M58.589218,72.950157 
	C58.973640,73.699097 58.989098,74.490074 59.011253,75.676750 
	C57.527519,76.747475 56.037083,77.422501 54.546646,78.097527 
	C54.206982,77.629707 53.867317,77.161880 53.527653,76.694061 
	C55.091850,75.460106 56.656052,74.226151 58.589218,72.950157 
z" data-index="20" style="visibility: visible;"></path>
<path fill="#E4815C" opacity="1.000000" stroke="none" d="
M84.988358,42.612583 
	C84.980934,43.005032 84.584938,43.003269 84.386948,43.002338 
	C83.448204,40.594818 82.707458,38.188229 81.904816,35.389763 
	C82.893867,37.405304 83.944817,39.812721 84.988358,42.612583 
z" data-index="21" style="visibility: visible;"></path>
<path fill="#E8835D" opacity="1.000000" stroke="none" d="
M45.610779,9.939475 
	C44.201523,11.268249 42.442181,12.628952 40.308128,13.968332 
	C41.709175,12.621807 43.484936,11.296606 45.610779,9.939475 
z" data-index="22" style="visibility: visible;"></path>
<path fill="#E8855B" opacity="1.000000" stroke="none" d="
M79.097488,65.314438 
	C79.983589,64.358765 81.156288,63.223389 82.705795,62.063240 
	C81.849762,63.070560 80.616920,64.102654 79.097488,65.314438 
z" data-index="23" style="visibility: visible;"></path>
<path fill="#E4815C" opacity="1.000000" stroke="none" d="
M70.066528,26.385241 
	C71.902260,26.850681 73.895164,27.630711 75.945549,28.779680 
	C74.076584,28.332357 72.150146,27.516094 70.066528,26.385241 
z" data-index="24" style="visibility: visible;"></path>
<path fill="#E48761" opacity="1.000000" stroke="none" d="
M62.428684,74.071487 
	C63.537605,73.241531 65.032715,72.371964 66.750244,71.261650 
	C66.972649,71.020897 66.999924,70.997787 67.259697,70.993805 
	C67.519470,70.989822 68.007233,70.979744 68.007233,70.979744 
	C68.189186,70.986473 68.371132,70.993195 68.825623,71.017448 
	C67.003746,72.033958 64.909309,73.032921 62.428684,74.071487 
z" data-index="25" style="visibility: visible;"></path>
<path fill="#E8835D" opacity="1.000000" stroke="none" d="
M37.680779,16.017860 
	C37.279564,17.544775 36.554390,19.224550 35.499855,21.026413 
	C35.899265,19.489239 36.628040,17.829977 37.680779,16.017860 
z" data-index="26" style="visibility: visible;"></path>
<path fill="#E8855B" opacity="1.000000" stroke="none" d="
M74.706619,59.955631 
	C73.897003,61.195393 72.791809,62.585266 71.301636,63.959862 
	C72.081451,62.664970 73.246246,61.385357 74.706619,59.955631 
z" data-index="27" style="visibility: visible;"></path>
<path fill="#E8855B" opacity="1.000000" stroke="none" d="
M74.373337,68.051613 
	C75.293198,67.199760 76.557549,66.320229 78.139664,65.632645 
	C77.210892,66.557709 75.964355,67.290817 74.373337,68.051613 
z" data-index="28" style="visibility: visible;"></path>
<path fill="#E48761" opacity="1.000000" stroke="none" d="
M66.160233,68.743240 
	C65.207298,69.301674 64.385063,69.603905 63.233543,69.922531 
	C64.036346,68.942024 65.168419,67.945122 66.641258,66.932526 
	C66.751656,67.440239 66.521294,67.963638 66.160233,68.743240 
z" data-index="29" style="visibility: visible;"></path>
<path fill="#E48761" opacity="1.000000" stroke="none" d="
M70.634697,63.910709 
	C69.853111,64.899567 68.732208,65.916824 67.269211,66.949692 
	C68.049866,65.956566 69.172623,64.947838 70.634697,63.910709 
z" data-index="30" style="visibility: visible;"></path>
<path fill="#E4815C" opacity="1.000000" stroke="none" d="
M77.588425,22.126057 
	C76.457184,22.332928 75.000053,22.460445 73.282677,22.381279 
	C74.435791,22.131962 75.849167,22.089333 77.588425,22.126057 
z" data-index="31" style="visibility: visible;"></path>
<path fill="#E8855B" opacity="1.000000" stroke="none" d="
M93.369110,52.972813 
	C93.518661,52.112900 93.968201,51.112026 94.775223,50.053154 
	C94.644836,50.940727 94.156975,51.886288 93.369110,52.972813 
z" data-index="32" style="visibility: visible;"></path>
<path fill="#E8835D" opacity="1.000000" stroke="none" d="
M35.924461,35.381275 
	C36.607746,35.838795 37.311829,36.635735 38.009399,37.804665 
	C37.317013,37.358002 36.631142,36.539349 35.924461,35.381275 
z" data-index="33" style="visibility: visible;"></path>
<path fill="#E8855B" opacity="1.000000" stroke="none" d="
M83.362320,62.039993 
	C83.812424,61.396629 84.588417,60.710537 85.722260,60.040504 
	C85.282822,60.703468 84.485519,61.350365 83.362320,62.039993 
z" data-index="34" style="visibility: visible;"></path>
<path fill="#E8855B" opacity="1.000000" stroke="none" d="
M71.331032,70.103271 
	C71.780182,69.443794 72.561035,68.720970 73.706009,68.030441 
	C73.267662,68.721809 72.465195,69.380875 71.331032,70.103271 
z" data-index="35" style="visibility: visible;"></path>
<path fill="#E8835D" opacity="1.000000" stroke="none" d="
M52.553387,7.943334 
	C51.529121,8.264308 50.115490,8.632940 48.309456,8.981377 
	C49.332710,8.637783 50.748367,8.314387 52.553387,7.943334 
z" data-index="36" style="visibility: visible;"></path>
<path fill="#E8835D" opacity="1.000000" stroke="none" d="
M53.385227,14.039247 
	C53.514137,13.397794 54.004417,12.725367 54.834850,12.022774 
	C54.698864,12.664496 54.222733,13.336385 53.385227,14.039247 
z" data-index="37" style="visibility: visible;"></path>
<path fill="#E4815C" opacity="1.000000" stroke="none" d="
M68.045410,25.361706 
	C68.587776,25.227486 69.259560,25.375351 69.932358,25.819798 
	C69.347191,25.958849 68.761017,25.801319 68.045410,25.361706 
z" data-index="38" style="visibility: visible;"></path>
<path fill="#E4815C" opacity="1.000000" stroke="none" d="
M77.998489,31.294216 
	C78.554543,31.493256 79.228615,31.978317 79.949997,32.800789 
	C79.370377,32.618877 78.743446,32.099560 77.998489,31.294216 
z" data-index="39" style="visibility: visible;"></path>
<path fill="#E8835D" opacity="1.000000" stroke="none" d="
M47.685425,8.958166 
	C47.511219,9.240791 47.024555,9.581728 46.226643,9.940193 
	C46.401249,9.643974 46.887108,9.330225 47.685425,8.958166 
z" data-index="40" style="visibility: visible;"></path>
<path fill="#E8835D" opacity="1.000000" stroke="none" d="
M40.049259,40.340809 
	C40.505829,40.228745 41.087490,40.411659 41.835625,40.861557 
	C41.392849,40.964287 40.783604,40.800041 40.049259,40.340809 
z" data-index="41" style="visibility: visible;"></path>
<path fill="#E8835D" opacity="1.000000" stroke="none" d="
M39.692734,13.980862 
	C39.766685,14.220551 39.556377,14.518169 39.080421,14.908924 
	C39.012676,14.680970 39.210579,14.359880 39.692734,13.980862 
z" data-index="42" style="visibility: visible;"></path>
<path fill="#E48761" opacity="1.000000" stroke="none" d="
M62.699852,69.977432 
	C62.749615,70.170830 62.538734,70.447014 62.090988,70.839066 
	C62.049149,70.656700 62.244175,70.358459 62.699852,69.977432 
z" data-index="43" style="visibility: visible;"></path>
<path fill="#E8855B" opacity="1.000000" stroke="none" d="
M76.715256,57.995716 
	C76.764153,58.202389 76.541794,58.491066 76.062103,58.886250 
	C76.017853,58.687744 76.230927,58.382732 76.715256,57.995716 
z" data-index="44" style="visibility: visible;"></path>
<path fill="#E8835D" opacity="1.000000" stroke="none" d="
M38.914787,39.268295 
	C39.123672,39.191563 39.439350,39.381512 39.868881,39.828667 
	C39.662350,39.902241 39.341961,39.718609 38.914787,39.268295 
z" data-index="45" style="visibility: visible;"></path>
<path fill="#E8855B" opacity="1.000000" stroke="none" d="
M77.740585,56.979385 
	C77.803917,57.185837 77.598648,57.469910 77.153488,57.869347 
	C77.099716,57.675476 77.285851,57.366245 77.740585,56.979385 
z" data-index="46" style="visibility: visible;"></path>

<path fill="#FEC4C3" opacity="1.000000" stroke="none" d="
M104.202194,224.810791 
	C103.887352,201.691986 103.940521,178.335815 104.175781,154.503738 
	C104.357872,154.027832 104.770081,154.005066 104.770081,154.005066 
	C104.703453,177.527863 104.636826,201.050644 104.202194,224.810791 
z" data-index="48" style="visibility: hidden; opacity: 1; stroke-width: 2px; stroke: rgb(13, 153, 255);"></path>

<path fill="#FFCEB2" opacity="1.000000" stroke="none" d="
M104.515808,153.689697 
	C104.770081,154.005066 104.357872,154.027832 104.151978,154.038727 
	C90.274033,154.035934 76.601974,154.022263 62.462410,154.084381 
	C62.283058,153.760849 62.573250,153.010895 62.859100,153.012543 
	C76.660149,153.092316 90.460815,153.236954 104.515808,153.689697 
z" data-index="50" style="visibility: hidden; stroke-width: 2px; stroke: rgb(13, 153, 255); opacity: 1;"></path>
<path fill="#DD906F" opacity="1.000000" stroke="none" d="
M75.249786,225.419006 
	C84.020950,225.124039 93.136475,225.076294 102.744652,225.087341 
	C94.022911,225.319489 84.808533,225.492874 75.249786,225.419006 
z" data-index="51"></path>

<path fill="#FB7037" opacity="1.000000" stroke="none" d="
M69.000732,105.664017 
	C64.286598,105.517754 59.572166,105.038948 54.043900,104.477486 
	C57.631336,97.824928 65.324234,97.994804 70.005432,93.464661 
	C71.853622,93.142242 73.581749,93.142242 75.309883,93.142242 
	C75.417534,93.570198 75.525185,93.998154 75.632835,94.426109 
	C71.533165,96.434853 67.433495,98.443596 63.333828,100.452339 
	C63.248627,100.931305 63.163425,101.410263 63.078228,101.889229 
	C64.799667,102.589706 66.521103,103.290192 68.621574,103.995949 
	C69.000549,104.444641 69.000488,104.888054 69.000732,105.664017 
z" data-index="53" style="opacity: 1; visibility: visible;"></path>
<path fill="#ED7B4B" opacity="1.000000" stroke="none" d="
M79.301125,104.404930 
	C83.819489,104.853828 84.337608,99.862144 87.569588,97.937698 
	C86.876984,103.570374 84.853905,105.197853 79.301125,104.404930 
z" data-index="54" style="opacity: 1; visibility: visible;"></path>
<path fill="#ED7B4B" opacity="1.000000" stroke="none" d="
M73.277573,104.383003 
	C74.081940,104.111473 75.136360,104.046776 76.586601,103.938606 
	C75.830826,104.126701 74.679230,104.358269 73.277573,104.383003 
z" data-index="55" style="visibility: visible;"></path>
<path fill="#ED7B4B" opacity="1.000000" stroke="none" d="
M77.214180,103.965263 
	C77.253242,103.791931 77.585197,103.632919 78.005264,103.720230 
	C77.897934,103.970894 77.702499,103.975243 77.214180,103.965263 
z" data-index="56"></path>
<path fill="#E8855B" opacity="1.000000" stroke="none" d="
M67.906937,70.848236 
	C68.007233,70.979744 67.519470,70.989822 67.275970,70.987671 
	C67.215271,70.620926 67.473328,70.531326 67.906937,70.848236 
z" data-index="57" style="visibility: visible;"></path>
<path fill="#F7723C" opacity="1.000000" stroke="none" d="
M57.534332,7.480101 
	C57.556450,7.520885 57.512215,7.439316 57.534332,7.480101 
z" data-index="58" style="visibility: visible;"></path>
</svg>